<svg width="50" height="50" viewBox="0 0 50 50" fill="none" xmlns="http://www.w3.org/2000/svg">
<path d="M39.1016 46.4844C37.5781 46.4844 36.3672 45.2734 36.3672 43.75C36.3672 42.2266 37.5781 41.0156 39.1016 41.0156C40.625 41.0156 41.8359 42.2266 41.8359 43.75C41.8359 45.2734 40.5859 46.4844 39.1016 46.4844ZM17.2266 46.4844C15.7031 46.4844 14.4922 45.2734 14.4922 43.75C14.4922 42.2266 15.7031 41.0156 17.2266 41.0156C18.75 41.0156 19.9609 42.2266 19.9609 43.75C19.9609 45.2734 18.7109 46.4844 17.2266 46.4844ZM16.7969 38.6719C14.7266 38.6719 12.9297 37.0312 12.6953 34.9609L10.0391 16.2891L8.51562 7.57812C8.39844 6.64062 7.57812 5.85938 6.67969 5.85938H4.6875C4.02344 5.85938 3.51562 5.35156 3.51562 4.6875C3.51562 4.02344 4.02344 3.51562 4.6875 3.51562H6.67969C8.75 3.51562 10.5859 5.15625 10.8594 7.22656L12.3828 15.9375L15.0391 34.6484C15.1172 35.5469 15.9375 36.3281 16.7969 36.3281H42.1875C42.8516 36.3281 43.3594 36.8359 43.3594 37.5C43.3594 38.1641 42.8516 38.6719 42.1875 38.6719H16.7969ZM18.75 32.4219C18.125 32.4219 17.6172 31.9531 17.5781 31.3281C17.5391 31.0156 17.6562 30.7031 17.8516 30.4688C18.0469 30.2344 18.3594 30.0781 18.6328 30.0781L39.8437 28.5156C40.7812 28.5156 41.6016 27.7734 41.7188 26.875L44.1797 12.8125C44.2578 12.1484 44.0625 11.4453 43.6719 11.0156C43.3984 10.7031 43.0469 10.5469 42.6172 10.5469H15.625C14.9609 10.5469 14.4531 10.0391 14.4531 9.375C14.4531 8.71094 14.9609 8.20312 15.625 8.20312H42.6953C43.7891 8.20312 44.7656 8.67188 45.5078 9.45313C46.3281 10.3906 46.7187 11.7578 46.5625 13.125L44.1016 27.1875C43.8672 29.2188 42.0312 30.8203 40 30.8203L18.9062 32.3828C18.8281 32.4219 18.7891 32.4219 18.75 32.4219Z" fill="black"/>
</svg>
