<svg width="50" height="50" viewBox="0 0 50 50" fill="none" xmlns="http://www.w3.org/2000/svg">
<g clip-path="url(#clip0_1101_298)">
<path d="M35.9391 5.57344C34.4078 5.57344 31.6375 6.30625 27.1453 10.7313L24.9188 12.9234L22.725 10.6953C19.6063 7.52656 16.2875 5.55781 14.0641 5.55781C11.0656 5.55781 8.70157 6.58281 6.39688 8.88281C4.22501 11.0484 3.02813 13.9297 3.02813 16.9938C3.02657 20.0594 4.22188 22.9422 6.41719 25.1328C6.59532 25.3141 16.0359 35.4984 23.9453 44.0344C24.3172 44.3891 24.7438 44.4406 24.9703 44.4406C25.1938 44.4406 25.6141 44.3906 25.9859 44.0453C27.9125 41.9016 41.8828 26.3688 43.5063 24.7469C45.6797 22.5781 46.8766 19.6953 46.8766 16.6313C46.8766 13.5672 45.6797 10.6875 43.5047 8.51875C41.3906 6.40625 38.9156 5.57344 35.9391 5.57344ZM35.9391 2.44844C39.6766 2.44844 42.9703 3.56563 45.7125 6.30625C51.4297 12.0078 51.4297 21.2531 45.7125 26.9578C44.0797 28.5906 28.2391 46.2125 28.2391 46.2125C27.3359 47.1156 26.1516 47.5641 24.9688 47.5641C23.7859 47.5641 22.6063 47.1156 21.7016 46.2125C21.7016 46.2125 4.37344 27.5094 4.18907 27.3234C-1.52499 21.6172 -1.52499 12.3703 4.18907 6.66875C7.02657 3.83594 10.1969 2.43125 14.0625 2.43125C17.7563 2.43125 21.875 5.37656 24.9516 8.50156C28.125 5.37656 32.1156 2.44844 35.9375 2.44844H35.9391Z" fill="black"/>
</g>
<defs>
<clipPath id="clip0_1101_298">
<rect width="50" height="50" fill="white" transform="matrix(-1 0 0 1 50 0)"/>
</clipPath>
</defs>
</svg>
